HIERARCHY
ROOT hip
{
  OFFSET 0 90.174 2.4664
  CHANNELS 6 Xposition Yposition Zposition Zrotation Xrotation Yrotation
  JOINT abdomen
  {
    OFFSET 0 -1.186 -1.5018
    CHANNELS 6 Xposition Yposition Zposition Zrotation Xrotation Yrotation
    JOINT abdomen2
    {
      OFFSET 0 9.964 0.2134
      CHANNELS 6 Xposition Yposition Zposition Zrotation Xrotation Yrotation
      JOINT chest
      {
        OFFSET 0 13.134 -3.2573
        CHANNELS 6 Xposition Yposition Zposition Zrotation Xrotation Yrotation
        JOINT neck
        {
          OFFSET 0 20.686 -1.6905
          CHANNELS 6 Xposition Yposition Zposition Zrotation Xrotation Yrotation
          JOINT head
          {
            OFFSET 0 7.238 -0.1237
            CHANNELS 6 Xposition Yposition Zposition Zrotation Xrotation Yrotation
            End Site
            {
              OFFSET 0 0 0
            }
          }
        }
        JOINT lCollar
        {
          OFFSET 1.7069 20.075 5.0056
          CHANNELS 6 Xposition Yposition Zposition Zrotation Xrotation Yrotation
          JOINT lShldr
          {
            OFFSET 13.6458 -0.047 -4.849
            CHANNELS 6 Xposition Yposition Zposition Zrotation Xrotation Yrotation
            JOINT lForeArm
            {
              OFFSET 28.3255 -0.9759 2.2888
              CHANNELS 6 Xposition Yposition Zposition Zrotation Xrotation Yrotation
              JOINT lHand
              {
                OFFSET 22.1583 -0.53 10.8316
                CHANNELS 6 Xposition Yposition Zposition Zrotation Xrotation Yrotation
                JOINT lThumb1
                {
                  OFFSET 0.786 0.112 2.5817
                  CHANNELS 6 Xposition Yposition Zposition Zrotation Xrotation Yrotation
                  JOINT lThumb2
                  {
                    OFFSET 0.3601 -0.878 4.2331
                    CHANNELS 6 Xposition Yposition Zposition Zrotation Xrotation Yrotation
                    JOINT lThumb2_End
                    {
                      OFFSET 1.8127 -1.216 2.2227
                      CHANNELS 6 Xposition Yposition Zposition Zrotation Xrotation Yrotation
                      End Site
                      {
                        OFFSET 0.0181 -0.0122 0.0222
                      }
                    }
                  }
                }
                JOINT lCarpal1
                {
                  OFFSET 0.9571 1.114 1.7695
                  CHANNELS 6 Xposition Yposition Zposition Zrotation Xrotation Yrotation
                  JOINT lIndex1
                  {
                    OFFSET 4.1246 0.487 4.1451
                    CHANNELS 6 Xposition Yposition Zposition Zrotation Xrotation Yrotation
                    JOINT lIndex2
                    {
                      OFFSET 3.4052 -1.454 2.7682
                      CHANNELS 6 Xposition Yposition Zposition Zrotation Xrotation Yrotation
                      JOINT lIndex2_End
                      {
                        OFFSET 1.4531 -1.795 1.2713
                        CHANNELS 6 Xposition Yposition Zposition Zrotation Xrotation Yrotation
                        End Site
                        {
                          OFFSET 0.0145 -0.0179 0.0127
                        }
                      }
                    }
                  }
                  JOINT lMid1
                  {
                    OFFSET 5.6954 0.21 2.1184
                    CHANNELS 6 Xposition Yposition Zposition Zrotation Xrotation Yrotation
                    JOINT lMid2
                    {
                      OFFSET 3.9766 -1.54 2.3863
                      CHANNELS 6 Xposition Yposition Zposition Zrotation Xrotation Yrotation
                      JOINT lMid2_End
                      {
                        OFFSET 1.4042 -1.926 1.125
                        CHANNELS 6 Xposition Yposition Zposition Zrotation Xrotation Yrotation
                        End Site
                        {
                          OFFSET 0.014 -0.0193 0.0113
                        }
                      }
                    }
                  }
                }
                JOINT lCarpal2
                {
                  OFFSET 2.0956 0.66 -0.3894
                  CHANNELS 6 Xposition Yposition Zposition Zrotation Xrotation Yrotation
                  JOINT lRing1
                  {
                    OFFSET 5.0395 -0.09 2.4971
                    CHANNELS 6 Xposition Yposition Zposition Zrotation Xrotation Yrotation
                    JOINT lRing2
                    {
                      OFFSET 3.7921 -1.552 1.4806
                      CHANNELS 6 Xposition Yposition Zposition Zrotation Xrotation Yrotation
                      JOINT lRing2_End
                      {
                        OFFSET 1.4655 -1.808 0.9609
                        CHANNELS 6 Xposition Yposition Zposition Zrotation Xrotation Yrotation
                        End Site
                        {
                          OFFSET 0.0147 -0.0181 0.0096
                        }
                      }
                    }
                  }
                  JOINT lPinky1
                  {
                    OFFSET 4.9141 -1.269 0.3591
                    CHANNELS 6 Xposition Yposition Zposition Zrotation Xrotation Yrotation
                    JOINT lPinky2
                    {
                      OFFSET 3.1477 -1.685 0.8462
                      CHANNELS 6 Xposition Yposition Zposition Zrotation Xrotation Yrotation
                      JOINT lPinky2_End
                      {
                        OFFSET 0.8055 -1.585 0.7955
                        CHANNELS 6 Xposition Yposition Zposition Zrotation Xrotation Yrotation
                        End Site
                        {
                          OFFSET 0.0081 -0.0158 0.008
                        }
                      }
                    }
                  }
                }
              }
            }
          }
        }
        JOINT rCollar
        {
          OFFSET -1.7069 20.075 5.0056
          CHANNELS 6 Xposition Yposition Zposition Zrotation Xrotation Yrotation
          JOINT rShldr
          {
            OFFSET -13.6458 -0.047 -4.849
            CHANNELS 6 Xposition Yposition Zposition Zrotation Xrotation Yrotation
            JOINT rForeArm
            {
              OFFSET -28.3255 -0.9759 2.2888
              CHANNELS 6 Xposition Yposition Zposition Zrotation Xrotation Yrotation
              JOINT rHand
              {
                OFFSET -22.1583 -0.53 10.8316
                CHANNELS 6 Xposition Yposition Zposition Zrotation Xrotation Yrotation
                JOINT rThumb1
                {
                  OFFSET -0.786 0.112 2.5817
                  CHANNELS 6 Xposition Yposition Zposition Zrotation Xrotation Yrotation
                  JOINT rThumb2
                  {
                    OFFSET -0.3601 -0.878 4.2331
                    CHANNELS 6 Xposition Yposition Zposition Zrotation Xrotation Yrotation
                    JOINT rThumb2_End
                    {
                      OFFSET -1.8127 -1.216 2.2227
                      CHANNELS 6 Xposition Yposition Zposition Zrotation Xrotation Yrotation
                      End Site
                      {
                        OFFSET -0.0181 -0.0122 0.0222
                      }
                    }
                  }
                }
                JOINT rCarpal1
                {
                  OFFSET -0.9571 1.114 1.7695
                  CHANNELS 6 Xposition Yposition Zposition Zrotation Xrotation Yrotation
                  JOINT rIndex1
                  {
                    OFFSET -4.1246 0.487 4.1451
                    CHANNELS 6 Xposition Yposition Zposition Zrotation Xrotation Yrotation
                    JOINT rIndex2
                    {
                      OFFSET -3.4052 -1.454 2.7682
                      CHANNELS 6 Xposition Yposition Zposition Zrotation Xrotation Yrotation
                      JOINT rIndex2_End
                      {
                        OFFSET -1.4531 -1.795 1.2713
                        CHANNELS 6 Xposition Yposition Zposition Zrotation Xrotation Yrotation
                        End Site
                        {
                          OFFSET -0.0145 -0.018 0.0127
                        }
                      }
                    }
                  }
                  JOINT rMid1
                  {
                    OFFSET -5.6954 0.21 2.1184
                    CHANNELS 6 Xposition Yposition Zposition Zrotation Xrotation Yrotation
                    JOINT rMid2
                    {
                      OFFSET -3.9766 -1.54 2.3863
                      CHANNELS 6 Xposition Yposition Zposition Zrotation Xrotation Yrotation
                      JOINT rMid2_End
                      {
                        OFFSET -1.4042 -1.926 1.125
                        CHANNELS 6 Xposition Yposition Zposition Zrotation Xrotation Yrotation
                        End Site
                        {
                          OFFSET -0.014 -0.0193 0.0113
                        }
                      }
                    }
                  }
                }
                JOINT rCarpal2
                {
                  OFFSET -2.0956 0.66 -0.3894
                  CHANNELS 6 Xposition Yposition Zposition Zrotation Xrotation Yrotation
                  JOINT rRing1
                  {
                    OFFSET -5.0395 -0.09 2.4971
                    CHANNELS 6 Xposition Yposition Zposition Zrotation Xrotation Yrotation
                    JOINT rRing2
                    {
                      OFFSET -3.7921 -1.552 1.4806
                      CHANNELS 6 Xposition Yposition Zposition Zrotation Xrotation Yrotation
                      JOINT rRing2_End
                      {
                        OFFSET -1.4655 -1.808 0.9609
                        CHANNELS 6 Xposition Yposition Zposition Zrotation Xrotation Yrotation
                        End Site
                        {
                          OFFSET -0.0147 -0.0181 0.0096
                        }
                      }
                    }
                  }
                  JOINT rPinky1
                  {
                    OFFSET -4.9141 -1.269 0.3592
                    CHANNELS 6 Xposition Yposition Zposition Zrotation Xrotation Yrotation
                    JOINT rPinky2
                    {
                      OFFSET -3.1477 -1.685 0.8462
                      CHANNELS 6 Xposition Yposition Zposition Zrotation Xrotation Yrotation
                      JOINT rPinky2_End
                      {
                        OFFSET -0.8055 -1.585 0.7955
                        CHANNELS 6 Xposition Yposition Zposition Zrotation Xrotation Yrotation
                        End Site
                        {
                          OFFSET -0.0081 -0.0158 0.008
                        }
                      }
                    }
                  }
                }
              }
            }
          }
        }
      }
    }
  }
  JOINT lThigh
  {
    OFFSET 8.367 -8.2066 0.5982
    CHANNELS 6 Xposition Yposition Zposition Zrotation Xrotation Yrotation
    JOINT lShin
    {
      OFFSET 2.1923 -43.463 -0.4932
      CHANNELS 6 Xposition Yposition Zposition Zrotation Xrotation Yrotation
      JOINT lFoot
      {
        OFFSET 0.7333 -45.8593 -2.6451
        CHANNELS 6 Xposition Yposition Zposition Zrotation Xrotation Yrotation
        End Site
        {
          OFFSET 2.6618 -4.2699 12.3931
        }
      }
    }
  }
  JOINT rThigh
  {
    OFFSET -8.367 -8.2066 0.5982
    CHANNELS 6 Xposition Yposition Zposition Zrotation Xrotation Yrotation
    JOINT rShin
    {
      OFFSET -2.1923 -43.463 -0.4931
      CHANNELS 6 Xposition Yposition Zposition Zrotation Xrotation Yrotation
      JOINT rFoot
      {
        OFFSET -0.7333 -45.8593 -2.6451
        CHANNELS 6 Xposition Yposition Zposition Zrotation Xrotation Yrotation
        End Site
        {
          OFFSET -2.6618 -4.2699 12.3931
        }
      }
    }
  }
}
MOTION
Frames:	4
Frame Time:	0.0333333
1.73589 40.4568 15.9176 0 25.8027 -0 0 -1.186 -1.5018 0.235859 2.16325 -0.366716 0 9.964 0.2134 0.486099 4.32492 -0.743143 0 13.134 -3.2573 0.4861 4.32491 -0.743143 4.44089e-016 20.686 -1.6905 -6.35425 -6.91294 -0.619892 0 7.238 -0.1237 -2.21946e-006 -4.46829 -6.20712e-007 1.7069 20.075 5.0056 8.08868 5.86614 26.6989 13.6458 -0.047 -4.849 -70.5561 31.0603 -18.487 28.3255 -0.9759 2.2888 -18.2075 14.9582 -28.1691 22.1583 -0.53 10.8316 2.8069 -18.0165 2.53834 0.786 0.112 2.5817 1.84952e-007 1.23384e-006 -1.1653e-006 0.3601 -0.878 4.2331 -5.96354e-016 -1.59028e-015 -1.59028e-015 1.8127 -1.216 2.2227 1.84952e-007 1.23384e-006 -1.1653e-006 0.9571 1.114 1.7695 5.96354e-016 0 -0 4.1246 0.487 4.1451 1.84952e-007 1.23384e-006 -1.1653e-006 3.4052 -1.454 2.7682 -3.97569e-016 -3.18055e-015 -4.77083e-015 1.4531 -1.795 1.2713 1.84952e-007 1.23384e-006 -1.1653e-006 5.6954 0.21 2.1184 1.84952e-007 1.23384e-006 -1.1653e-006 3.9766 -1.54 2.3863 -3.97569e-016 -3.18055e-015 -4.77083e-015 1.4042 -1.926 1.125 1.84952e-007 1.23384e-006 -1.1653e-006 2.0956 0.66 -0.3894 5.96354e-016 0 -0 5.0395 -0.09 2.4971 1.84952e-007 1.23384e-006 -1.1653e-006 3.7921 -1.552 1.4806 -3.97569e-016 -3.18055e-015 -4.77083e-015 1.4655 -1.808 0.9609 1.84952e-007 1.23384e-006 -1.1653e-006 4.9141 -1.269 0.3591 1.84952e-007 1.23384e-006 -1.1653e-006 3.1477 -1.685 0.8462 -3.97569e-016 -3.18055e-015 -4.77083e-015 0.8055 -1.585 0.7955 1.84952e-007 1.23384e-006 -1.1653e-006 -1.7069 20.075 5.0056 -8.89237 5.81235 -27.2752 -13.6458 -0.047 -4.849 70.7531 31.1371 19.0894 -28.3255 -0.9759 2.2888 16.8648 13.9075 27.6542 -22.1583 -0.53 10.8316 -2.48881 -17.5585 -3.22203 -0.786 0.112 2.5817 -2.98177e-016 -3.97569e-016 3.18055e-015 -0.3601 -0.878 4.2331 2.20695e-032 -3.97569e-016 3.18055e-015 -1.8127 -1.216 2.2227 -1.98785e-016 0 -0 -0.9571 1.114 1.7695 -1.98785e-016 0 1.59028e-015 -4.1246 0.487 4.1451 -9.93923e-017 0 7.95139e-015 -3.4052 -1.454 2.7682 1.98785e-016 -3.97569e-016 1.59028e-015 -1.4531 -1.795 1.2713 -3.97569e-016 -3.97569e-016 3.18055e-015 -5.6954 0.21 2.1184 -9.93923e-017 0 7.95139e-015 -3.9766 -1.54 2.3863 1.98785e-016 -3.97569e-016 1.59028e-015 -1.4042 -1.926 1.125 -3.97569e-016 -3.97569e-016 3.18055e-015 -2.0956 0.66 -0.3894 -1.98785e-016 0 1.59028e-015 -5.0395 -0.09 2.4971 -9.93923e-017 0 7.95139e-015 -3.7921 -1.552 1.4806 1.98785e-016 -3.97569e-016 1.59028e-015 -1.4655 -1.808 0.9609 -3.97569e-016 -3.97569e-016 3.18055e-015 -4.9141 -1.269 0.3592 -9.93923e-017 0 7.95139e-015 -3.1477 -1.685 0.8462 1.98785e-016 -3.97569e-016 1.59028e-015 -0.8055 -1.585 0.7955 -3.97569e-016 -3.97569e-016 3.18055e-015 8.367 -8.2066 0.5982 23.4795 -19.4797 15.7155 2.1923 -43.463 -0.4932 7.17208 81.3872 -2.85295 0.7333 -45.8593 -2.6451 -30.0012 54.5902 35.8492 -8.367 -8.2066 0.5982 -23.4956 -19.4681 -15.7395 -2.1923 -43.463 -0.4931 -7.3696 81.3856 3.06135 -0.7333 -45.8593 -2.6451 29.9843 54.5934 -35.8399 
1.73591 40.4628 15.7787 0 26.6078 -0 0 -1.186 -1.5018 0.23743 1.94699 -0.365529 0 9.964 0.2134 0.487715 3.89241 -0.739775 0 13.134 -3.2573 0.487714 3.8924 -0.739774 4.44089e-016 20.686 -1.6905 -6.32723 -7.56316 -0.684841 8.88178e-016 7.238 -0.1237 7.29724e-007 -5.41091 -1.92027e-009 1.7069 20.075 5.0056 8.1307 6.19758 26.761 13.6458 -0.047 -4.849 -70.5561 31.0603 -18.487 28.3255 -0.9759 2.2888 -18.3053 15.0623 -28.4141 22.1583 -0.53 10.8316 2.92006 -17.9721 2.6935 0.786 0.112 2.5817 -9.93923e-016 -2.38542e-015 -4.77083e-015 0.3601 -0.878 4.2331 -1.98785e-016 -7.95139e-016 -1.59028e-015 1.8127 -1.216 2.2227 -3.97569e-016 -1.59028e-015 -3.18055e-015 0.9571 1.114 1.7695 -7.95139e-016 -1.59028e-015 -3.18055e-015 4.1246 0.487 4.1451 -1.19271e-015 -1.59028e-015 6.36111e-015 3.4052 -1.454 2.7682 -8.82781e-032 -1.59028e-015 -3.18055e-015 1.4531 -1.795 1.2713 -5.96354e-016 -1.59028e-015 -3.18055e-015 5.6954 0.21 2.1184 -1.19271e-015 -1.59028e-015 6.36111e-015 3.9766 -1.54 2.3863 -8.82781e-032 -1.59028e-015 -3.18055e-015 1.4042 -1.926 1.125 -5.96354e-016 -1.59028e-015 -3.18055e-015 2.0956 0.66 -0.3894 -7.95139e-016 -1.59028e-015 -3.18055e-015 5.0395 -0.09 2.4971 -1.19271e-015 -1.59028e-015 6.36111e-015 3.7921 -1.552 1.4806 -8.82781e-032 -1.59028e-015 -3.18055e-015 1.4655 -1.808 0.9609 -5.96354e-016 -1.59028e-015 -3.18055e-015 4.9141 -1.269 0.3591 -1.19271e-015 -1.59028e-015 6.36111e-015 3.1477 -1.685 0.8462 -8.82781e-032 -1.59028e-015 -3.18055e-015 0.8055 -1.585 0.7955 -5.96354e-016 -1.59028e-015 -3.18055e-015 -1.7069 20.075 5.0056 -8.94192 6.14071 -27.3414 -13.6458 -0.047 -4.849 70.7531 31.1371 19.0894 -28.3255 -0.9759 2.2888 16.9657 14.004 27.8979 -22.1583 -0.53 10.8316 -2.59241 -17.502 -3.37586 -0.786 0.112 2.5817 -2.77329e-007 1.5205e-006 2.70302e-007 -0.3601 -0.878 4.2331 -9.93923e-016 -3.97569e-016 7.95139e-015 -1.8127 -1.216 2.2227 -5.96354e-016 0 6.36111e-015 -0.9571 1.114 1.7695 1.98785e-016 -7.95139e-016 -0 -4.1246 0.487 4.1451 -2.77329e-007 1.5205e-006 2.70302e-007 -3.4052 -1.454 2.7682 -5.96354e-016 0 6.36111e-015 -1.4531 -1.795 1.2713 -5.96354e-016 0 7.95139e-015 -5.6954 0.21 2.1184 -2.77329e-007 1.5205e-006 2.70302e-007 -3.9766 -1.54 2.3863 -5.96354e-016 0 6.36111e-015 -1.4042 -1.926 1.125 -5.96354e-016 0 7.95139e-015 -2.0956 0.66 -0.3894 1.98785e-016 -7.95139e-016 -0 -5.0395 -0.09 2.4971 -2.77329e-007 1.5205e-006 2.70302e-007 -3.7921 -1.552 1.4806 -5.96354e-016 0 6.36111e-015 -1.4655 -1.808 0.9609 -5.96354e-016 0 7.95139e-015 -4.9141 -1.269 0.3592 -2.77329e-007 1.5205e-006 2.70302e-007 -3.1477 -1.685 0.8462 -5.96354e-016 0 6.36111e-015 -0.8055 -1.585 0.7955 -5.96354e-016 0 7.95139e-015 8.367 -8.2066 0.5982 23.5011 -20.5708 15.9199 2.1923 -43.463 -0.4932 7.54714 81.6619 -3.20416 0.7333 -45.8593 -2.6451 -30.3209 54.5424 36.1247 -8.367 -8.2066 0.5982 -23.5175 -20.5598 -15.9437 -2.1923 -43.463 -0.4931 -7.74746 81.6601 3.415 -0.7333 -45.8593 -2.6451 30.3038 54.5466 -36.115 
1.73593 40.4682 15.6388 0 27.4128 -0 0 -1.186 -1.5018 0.239001 1.73077 -0.364326 2.22045e-016 9.964 0.2134 0.489348 3.46001 -0.736379 4.44089e-016 13.134 -3.2573 0.489348 3.46003 -0.736379 -4.44089e-016 20.686 -1.6905 -6.30088 -8.21429 -0.749598 0 7.238 -0.1237 -1.91091e-007 -6.35449 -1.56913e-007 1.7069 20.075 5.0056 8.17237 6.52893 26.823 13.6458 -0.047 -4.849 -70.5561 31.0603 -18.487 28.3255 -0.9759 2.2888 -18.4026 15.1669 -28.659 22.1583 -0.53 10.8316 3.03304 -17.9274 2.84854 0.786 0.112 2.5817 7.95139e-016 -7.95139e-016 -3.18055e-015 0.3601 -0.878 4.2331 -1.98785e-016 7.95139e-016 -1.59028e-015 1.8127 -1.216 2.2227 5.96354e-016 7.95139e-016 -1.59028e-015 0.9571 1.114 1.7695 9.93923e-016 -7.95139e-016 -1.59028e-015 4.1246 0.487 4.1451 -1.98785e-016 1.59028e-015 7.95139e-015 3.4052 -1.454 2.7682 1.98785e-016 1.59028e-015 -0 1.4531 -1.795 1.2713 -0 -7.95139e-016 -0 5.6954 0.21 2.1184 -1.98785e-016 1.59028e-015 7.95139e-015 3.9766 -1.54 2.3863 1.98785e-016 1.59028e-015 -0 1.4042 -1.926 1.125 -0 -7.95139e-016 -0 2.0956 0.66 -0.3894 9.93923e-016 -7.95139e-016 -1.59028e-015 5.0395 -0.09 2.4971 -1.98785e-016 1.59028e-015 7.95139e-015 3.7921 -1.552 1.4806 1.98785e-016 1.59028e-015 -0 1.4655 -1.808 0.9609 -0 -7.95139e-016 -0 4.9141 -1.269 0.3591 -1.98785e-016 1.59028e-015 7.95139e-015 3.1477 -1.685 0.8462 1.98785e-016 1.59028e-015 -0 0.8055 -1.585 0.7955 -0 -7.95139e-016 -0 -1.7069 20.075 5.0056 -8.99114 6.46898 -27.4074 -13.6458 -0.047 -4.849 70.7531 31.1371 19.0894 -28.3255 -0.9759 2.2888 17.0662 14.1008 28.1416 -22.1583 -0.53 10.8316 -2.69588 -17.4453 -3.52956 -0.786 0.112 2.5817 4.74296e-006 3.08156e-007 5.82613e-007 -0.3601 -0.878 4.2331 3.97569e-016 -7.95139e-016 -4.77083e-015 -1.8127 -1.216 2.2227 1.98785e-016 -3.97569e-016 -3.18055e-015 -0.9571 1.114 1.7695 3.97569e-016 -7.95139e-016 3.18055e-015 -4.1246 0.487 4.1451 4.74296e-006 3.08156e-007 5.82613e-007 -3.4052 -1.454 2.7682 3.97569e-016 -3.97569e-016 -3.18055e-015 -1.4531 -1.795 1.2713 -2.20695e-032 -3.97569e-016 -3.18055e-015 -5.6954 0.21 2.1184 4.74296e-006 3.08156e-007 5.82613e-007 -3.9766 -1.54 2.3863 3.97569e-016 -3.97569e-016 -3.18055e-015 -1.4042 -1.926 1.125 -2.20695e-032 -3.97569e-016 -3.18055e-015 -2.0956 0.66 -0.3894 3.97569e-016 -7.95139e-016 3.18055e-015 -5.0395 -0.09 2.4971 4.74296e-006 3.08156e-007 5.82613e-007 -3.7921 -1.552 1.4806 3.97569e-016 -3.97569e-016 -3.18055e-015 -1.4655 -1.808 0.9609 -2.20695e-032 -3.97569e-016 -3.18055e-015 -4.9141 -1.269 0.3592 4.74296e-006 3.08156e-007 5.82613e-007 -3.1477 -1.685 0.8462 3.97569e-016 -3.97569e-016 -3.18055e-015 -0.8055 -1.585 0.7955 -2.20695e-032 -3.97569e-016 -3.18055e-015 8.367 -8.2066 0.5982 23.5267 -21.6617 16.1259 2.1923 -43.463 -0.4932 7.94765 81.9362 -3.58076 0.7333 -45.8593 -2.6451 -30.6401 54.4939 36.3996 -8.367 -8.2066 0.5982 -23.5435 -21.6512 -16.1496 -2.1923 -43.463 -0.4931 -8.15091 81.9343 3.79423 -0.7333 -45.8593 -2.6451 30.6229 54.4991 -36.3897 
1.73594 40.4729 15.4981 0 28.2175 -0 0 -1.186 -1.5018 0.240563 1.51463 -0.363095 0 9.964 0.2134 0.490985 3.02771 -0.732936 0 13.134 -3.2573 0.490985 3.02771 -0.732936 0 20.686 -1.6905 -6.27523 -8.86436 -0.81421 0 7.238 -0.1237 1.67232e-007 -7.29889 -1.31355e-007 1.7069 20.075 5.0056 8.21373 6.86041 26.8847 13.6458 -0.047 -4.849 -70.5561 31.0603 -18.487 28.3255 -0.9759 2.2888 -18.4994 15.2719 -28.9038 22.1583 -0.53 10.8316 3.14591 -17.8823 3.00343 0.786 0.112 2.5817 1.08402e-007 1.19969e-006 3.469e-008 0.3601 -0.878 4.2331 1.83535e-007 1.23438e-006 -1.165e-006 1.8127 -1.216 2.2227 1.83535e-007 1.23438e-006 -1.165e-006 0.9571 1.114 1.7695 6.62086e-032 -7.95139e-016 4.77083e-015 4.1246 0.487 4.1451 1.08402e-007 1.19969e-006 3.469e-008 3.4052 -1.454 2.7682 1.83535e-007 1.23438e-006 -1.165e-006 1.4531 -1.795 1.2713 1.83535e-007 1.23438e-006 -1.165e-006 5.6954 0.21 2.1184 1.08402e-007 1.19969e-006 3.469e-008 3.9766 -1.54 2.3863 1.83535e-007 1.23438e-006 -1.165e-006 1.4042 -1.926 1.125 1.83535e-007 1.23438e-006 -1.165e-006 2.0956 0.66 -0.3894 6.62086e-032 -7.95139e-016 4.77083e-015 5.0395 -0.09 2.4971 1.08402e-007 1.19969e-006 3.469e-008 3.7921 -1.552 1.4806 1.83535e-007 1.23438e-006 -1.165e-006 1.4655 -1.808 0.9609 1.83535e-007 1.23438e-006 -1.165e-006 4.9141 -1.269 0.3591 1.08402e-007 1.19969e-006 3.469e-008 3.1477 -1.685 0.8462 1.83535e-007 1.23438e-006 -1.165e-006 0.8055 -1.585 0.7955 1.83535e-007 1.23438e-006 -1.165e-006 -1.7069 20.075 5.0056 -9.03999 6.79741 -27.4731 -13.6458 -0.047 -4.849 70.7531 31.1371 19.0894 -28.3255 -0.9759 2.2888 17.1663 14.198 28.3852 -22.1583 -0.53 10.8316 -2.79916 -17.3883 -3.6831 -0.786 0.112 2.5817 -2.98177e-016 0 1.59028e-015 -0.3601 -0.878 4.2331 -3.97569e-016 0 1.59028e-015 -1.8127 -1.216 2.2227 2.98177e-016 0 1.59028e-015 -0.9571 1.114 1.7695 -2.98177e-016 -3.97569e-016 1.59028e-015 -4.1246 0.487 4.1451 -2.98177e-016 -1.59028e-015 7.95139e-015 -3.4052 -1.454 2.7682 -2.98177e-016 0 3.18055e-015 -1.4531 -1.795 1.2713 9.93923e-017 0 3.18055e-015 -5.6954 0.21 2.1184 -2.98177e-016 -1.59028e-015 7.95139e-015 -3.9766 -1.54 2.3863 -2.98177e-016 0 3.18055e-015 -1.4042 -1.926 1.125 9.93923e-017 0 3.18055e-015 -2.0956 0.66 -0.3894 -2.98177e-016 -3.97569e-016 1.59028e-015 -5.0395 -0.09 2.4971 -2.98177e-016 -1.59028e-015 7.95139e-015 -3.7921 -1.552 1.4806 -2.98177e-016 0 3.18055e-015 -1.4655 -1.808 0.9609 9.93923e-017 0 3.18055e-015 -4.9141 -1.269 0.3592 -2.98177e-016 -1.59028e-015 7.95139e-015 -3.1477 -1.685 0.8462 -2.98177e-016 0 3.18055e-015 -0.8055 -1.585 0.7955 9.93923e-017 0 3.18055e-015 8.367 -8.2066 0.5982 23.5565 -22.7519 16.3338 2.1923 -43.463 -0.4932 8.37636 82.2101 -3.98566 0.7333 -45.8593 -2.6451 -30.9589 54.4447 36.674 -8.367 -8.2066 0.5982 -23.5737 -22.7422 -16.3574 -2.1923 -43.463 -0.4931 -8.58298 82.208 4.20214 -0.7333 -45.8593 -2.6451 30.9416 54.4508 -36.6637 
